<svg width="20" height="20" viewBox="0 0 20 20" fill="none" xmlns="http://www.w3.org/2000/svg">
<path d="M10 0C8.02219 0 6.08879 0.58649 4.4443 1.6853C2.79981 2.78412 1.51809 4.3459 0.761209 6.17316C0.00433284 8.00042 -0.1937 10.0111 0.192152 11.9509C0.578004 13.8907 1.53041 15.6725 2.92894 17.0711C4.32746 18.4696 6.10929 19.422 8.0491 19.8078C9.98891 20.1937 11.9996 19.9957 13.8268 19.2388C15.6541 18.4819 17.2159 17.2002 18.3147 15.5557C19.4135 13.9112 20 11.9778 20 10C19.9972 7.34869 18.9427 4.80678 17.068 2.93202C15.1932 1.05727 12.6513 0.00279983 10 0ZM10 18.4615C8.32647 18.4615 6.69052 17.9653 5.29902 17.0355C3.90753 16.1057 2.823 14.7842 2.18256 13.2381C1.54213 11.6919 1.37456 9.99061 1.70105 8.34923C2.02754 6.70786 2.83343 5.20016 4.01679 4.01679C5.20016 2.83342 6.70786 2.02754 8.34924 1.70105C9.99062 1.37456 11.6919 1.54212 13.2381 2.18256C14.7842 2.82299 16.1057 3.90753 17.0355 5.29902C17.9653 6.69051 18.4615 8.32646 18.4615 10C18.459 12.2434 17.5667 14.3941 15.9804 15.9804C14.3941 17.5667 12.2434 18.459 10 18.4615ZM6.92308 10C6.92308 10.6458 7.12627 11.2752 7.50387 11.7991C7.88147 12.323 8.41434 12.7148 9.02699 12.919C9.63965 13.1232 10.301 13.1295 10.9174 12.937C11.5339 12.7444 12.0741 12.3628 12.4615 11.8462C12.5841 11.6829 12.7664 11.5751 12.9685 11.5463C13.1705 11.5176 13.3757 11.5703 13.5389 11.6928C13.7022 11.8153 13.81 11.9977 13.8388 12.1997C13.8675 12.4018 13.8148 12.607 13.6923 12.7702C13.111 13.5449 12.3006 14.1171 11.376 14.4057C10.4514 14.6943 9.45948 14.6848 8.54064 14.3783C7.6218 14.0719 6.82264 13.4842 6.25635 12.6984C5.69006 11.9126 5.38534 10.9686 5.38534 10C5.38534 9.03141 5.69006 8.08737 6.25635 7.30158C6.82264 6.51578 7.6218 5.92806 8.54064 5.62165C9.45948 5.31524 10.4514 5.30566 11.376 5.59428C12.3006 5.8829 13.111 6.45509 13.6923 7.22981C13.753 7.31062 13.7971 7.40259 13.8223 7.50047C13.8474 7.59835 13.853 7.70022 13.8388 7.80027C13.8245 7.90032 13.7907 7.99658 13.7393 8.08356C13.6878 8.17054 13.6198 8.24654 13.5389 8.30721C13.4581 8.36788 13.3662 8.41204 13.2683 8.43717C13.1704 8.4623 13.0685 8.46791 12.9685 8.45366C12.8684 8.43942 12.7722 8.40562 12.6852 8.35417C12.5982 8.30273 12.5222 8.23466 12.4615 8.15384C12.0741 7.63721 11.5339 7.25559 10.9174 7.06303C10.301 6.87048 9.63965 6.87676 9.02699 7.08097C8.41434 7.28519 7.88147 7.677 7.50387 8.20089C7.12627 8.72478 6.92308 9.35421 6.92308 10Z" fill="white" fill-opacity="0.7"/>
</svg>
