<svg width="20" height="21" viewBox="0 0 20 21" fill="none" xmlns="http://www.w3.org/2000/svg">
<path d="M10 0.8125C8.02219 0.8125 6.08879 1.39899 4.4443 2.4978C2.79981 3.59662 1.51809 5.1584 0.761209 6.98566C0.00433284 8.81292 -0.1937 10.8236 0.192152 12.7634C0.578004 14.7032 1.53041 16.485 2.92894 17.8836C4.32746 19.2821 6.10929 20.2345 8.0491 20.6203C9.98891 21.0062 11.9996 20.8082 13.8268 20.0513C15.6541 19.2944 17.2159 18.0127 18.3147 16.3682C19.4135 14.7237 20 12.7903 20 10.8125C19.9972 8.16119 18.9427 5.61928 17.068 3.74452C15.1932 1.86977 12.6513 0.8153 10 0.8125ZM10 19.274C8.32647 19.274 6.69052 18.7778 5.29902 17.848C3.90753 16.9182 2.823 15.5967 2.18256 14.0506C1.54213 12.5044 1.37456 10.8031 1.70105 9.16173C2.02754 7.52036 2.83343 6.01266 4.01679 4.82929C5.20016 3.64592 6.70786 2.84004 8.34924 2.51355C9.99062 2.18706 11.6919 2.35462 13.2381 2.99506C14.7842 3.63549 16.1057 4.72003 17.0355 6.11152C17.9653 7.50301 18.4615 9.13896 18.4615 10.8125C18.459 13.0559 17.5667 15.2066 15.9804 16.7929C14.3941 18.3792 12.2434 19.2715 10 19.274ZM16.1538 10.8125C16.1538 11.0165 16.0728 11.2122 15.9285 11.3564C15.7843 11.5007 15.5886 11.5817 15.3846 11.5817H10C9.79599 11.5817 9.60033 11.5007 9.45607 11.3564C9.31182 11.2122 9.23077 11.0165 9.23077 10.8125V5.42788C9.23077 5.22387 9.31182 5.02821 9.45607 4.88396C9.60033 4.7397 9.79599 4.65865 10 4.65865C10.204 4.65865 10.3997 4.7397 10.5439 4.88396C10.6882 5.02821 10.7692 5.22387 10.7692 5.42788V10.0433H15.3846C15.5886 10.0433 15.7843 10.1243 15.9285 10.2686C16.0728 10.4128 16.1538 10.6085 16.1538 10.8125Z" fill="black"/>
</svg>
