<svg width="31" height="30" viewBox="0 0 31 30" fill="none" xmlns="http://www.w3.org/2000/svg">
<path d="M15.4039 30C11.1255 30 7.48822 28.502 4.49217 25.5059C1.4961 22.5099 -0.00128283 18.8732 8.24621e-07 14.5961C8.24621e-07 11.4255 0.906906 8.51476 2.72072 5.864C4.53581 3.21068 7.10955 1.30252 10.4419 0.139525C10.8347 0.00217362 11.1787 -0.0337693 11.474 0.0316973C11.7692 0.0971639 12.0138 0.224889 12.2076 0.41487C12.4014 0.604852 12.5247 0.848746 12.5773 1.14656C12.6286 1.44565 12.5882 1.7595 12.456 2.08812C12.207 2.70042 12.026 3.32364 11.913 3.95777C11.8 4.5919 11.7442 5.24977 11.7455 5.93139C11.7455 9.36261 12.9412 12.2746 15.3327 14.6673C17.7254 17.0588 20.6374 18.2545 24.0686 18.2545C24.9646 18.2545 25.7842 18.1595 26.5275 17.9695C27.272 17.7796 27.9061 17.6255 28.4298 17.5074C28.7097 17.4561 28.9658 17.4625 29.1981 17.5267C29.4305 17.5909 29.6179 17.7038 29.7604 17.8656C29.908 18.026 30.0081 18.2237 30.0607 18.4586C30.1134 18.6935 30.0832 18.9612 29.9702 19.2616C29.0524 22.4065 27.2534 24.9822 24.5731 26.9885C21.8928 28.9949 18.8364 29.9987 15.4039 30Z" fill="black"/>
</svg>
