<svg width="20" height="20" viewBox="0 0 20 20" fill="none" xmlns="http://www.w3.org/2000/svg">
<path d="M10 6.48896C9.25836 6.48896 8.53333 6.69824 7.91665 7.09032C7.29996 7.48241 6.81932 8.0397 6.53549 8.69171C6.25166 9.34373 6.1774 10.0612 6.32209 10.7534C6.46679 11.4455 6.82394 12.0814 7.34839 12.5804C7.87283 13.0794 8.54102 13.4193 9.26845 13.5569C9.99588 13.6946 10.7499 13.624 11.4351 13.3539C12.1203 13.0838 12.706 12.6265 13.118 12.0397C13.5301 11.4529 13.75 10.763 13.75 10.0572C13.749 9.11117 13.3536 8.20414 12.6505 7.53517C11.9475 6.8662 10.9943 6.48995 10 6.48896ZM10 12.4361C9.50558 12.4361 9.02223 12.2966 8.61111 12.0352C8.19999 11.7738 7.87956 11.4023 7.69034 10.9676C7.50112 10.5329 7.45161 10.0546 7.54807 9.59314C7.64454 9.13169 7.88264 8.70782 8.23227 8.37513C8.5819 8.04245 9.02736 7.81588 9.51231 7.72409C9.99726 7.63231 10.4999 7.67941 10.9567 7.85946C11.4136 8.03951 11.804 8.34442 12.0787 8.73562C12.3534 9.12682 12.5 9.58674 12.5 10.0572C12.5 10.6881 12.2366 11.2932 11.7678 11.7393C11.299 12.1855 10.6631 12.4361 10 12.4361ZM16.875 10.2178C16.8782 10.1108 16.8782 10.0037 16.875 9.89666L18.0407 8.51098C18.1018 8.43823 18.1441 8.35283 18.1642 8.26167C18.1842 8.17051 18.1816 8.07613 18.1563 7.98615C17.9652 7.30267 17.6794 6.64644 17.3063 6.03475C17.2574 5.9547 17.1896 5.88661 17.1082 5.83589C17.0269 5.78517 16.9342 5.75322 16.8375 5.7426L14.9844 5.54634C14.9073 5.46903 14.8292 5.39469 14.75 5.32333L14.5313 3.55554C14.52 3.46352 14.4863 3.37527 14.4329 3.29783C14.3795 3.22039 14.3077 3.15591 14.2235 3.10951C13.5804 2.75516 12.8908 2.48344 12.1727 2.30145C12.0781 2.27751 11.9788 2.27506 11.883 2.2943C11.7872 2.31354 11.6975 2.35393 11.6211 2.41221L10.1688 3.5154H9.83129L8.37504 2.40849C8.29858 2.35034 8.20883 2.31008 8.11303 2.29097C8.01722 2.27186 7.91804 2.27443 7.82347 2.29847C7.10531 2.48062 6.4157 2.7526 5.77269 3.10728C5.68857 3.15376 5.617 3.21829 5.5637 3.29572C5.5104 3.37316 5.47683 3.46136 5.46566 3.55331L5.25941 5.31961C5.17816 5.39345 5.10004 5.46779 5.02504 5.54263L3.16722 5.74557C3.07051 5.75628 2.97777 5.78833 2.89639 5.83919C2.815 5.89004 2.74723 5.95828 2.69847 6.03847C2.32608 6.6504 2.04052 7.30657 1.84925 7.98987C1.8241 8.07991 1.82152 8.17432 1.84174 8.26548C1.86196 8.35664 1.90441 8.44201 1.96566 8.5147L3.12504 9.89666V10.2178L1.96175 11.6035C1.90064 11.6762 1.85833 11.7616 1.83825 11.8528C1.81816 11.944 1.82086 12.0383 1.84613 12.1283C2.03721 12.8118 2.32305 13.468 2.69613 14.0797C2.74498 14.1598 2.81279 14.2279 2.89417 14.2786C2.97555 14.3293 3.06824 14.3612 3.16488 14.3719L5.018 14.5681C5.09561 14.6454 5.17373 14.7198 5.25238 14.7911L5.46879 16.5589C5.48004 16.6509 5.51373 16.7392 5.56717 16.8166C5.62061 16.8941 5.69233 16.9586 5.7766 17.005C6.41969 17.3593 7.10928 17.631 7.82738 17.813C7.92201 17.837 8.02122 17.8394 8.11703 17.8202C8.21284 17.8009 8.30255 17.7605 8.37894 17.7023L9.83129 16.5991C9.94379 16.602 10.0563 16.602 10.1688 16.5991L11.625 17.7082C11.7015 17.7664 11.7912 17.8066 11.887 17.8257C11.9828 17.8448 12.082 17.8423 12.1766 17.8182C12.8949 17.6364 13.5845 17.3644 14.2274 17.0094C14.3115 16.9629 14.3831 16.8984 14.4364 16.821C14.4897 16.7435 14.5232 16.6553 14.5344 16.5634L14.7407 14.8001C14.8219 14.7267 14.9 14.6524 14.975 14.577L16.8328 14.3689C16.9296 14.3582 17.0223 14.3261 17.1037 14.2753C17.1851 14.2244 17.2528 14.1562 17.3016 14.076C17.674 13.4641 17.9595 12.8079 18.1508 12.1246C18.176 12.0346 18.1785 11.9402 18.1583 11.849C18.1381 11.7578 18.0957 11.6725 18.0344 11.5998L16.875 10.2178ZM15.6172 9.7346C15.6305 9.9495 15.6305 10.165 15.6172 10.3799C15.6079 10.527 15.6564 10.6722 15.7532 10.7872L16.8618 12.1053C16.7345 12.4899 16.5717 12.8631 16.375 13.2204L14.6094 13.4107C14.4556 13.4269 14.3137 13.4968 14.211 13.6069C14.0606 13.7679 13.9004 13.9203 13.7313 14.0634C13.6156 14.1611 13.5421 14.2962 13.525 14.4425L13.3289 16.1211C12.9536 16.3083 12.5614 16.4633 12.1571 16.5842L10.7711 15.5293C10.6602 15.445 10.5225 15.3991 10.3805 15.3992H10.343C10.1172 15.4119 9.89073 15.4119 9.66488 15.3992C9.51026 15.3904 9.35769 15.4365 9.23675 15.5286L7.84769 16.5842C7.44343 16.4631 7.05126 16.3082 6.67582 16.1211L6.47582 14.4432C6.45875 14.2969 6.38526 14.1618 6.26957 14.0641C6.10042 13.921 5.94025 13.7686 5.78988 13.6077C5.68717 13.4976 5.5452 13.4276 5.39144 13.4114L3.62738 13.2241C3.43065 12.8669 3.26776 12.4937 3.14066 12.109L4.24925 10.7902C4.34606 10.6751 4.3945 10.53 4.38519 10.3828C4.37192 10.1679 4.37192 9.95248 4.38519 9.73758C4.3945 9.59045 4.34606 9.44527 4.24925 9.3302L3.14066 8.00919C3.26788 7.62452 3.43076 7.25136 3.62738 6.89411L5.39066 6.7038C5.54442 6.68756 5.68639 6.61763 5.7891 6.50755C5.93947 6.3466 6.09964 6.19419 6.26879 6.0511C6.38494 5.95331 6.45873 5.81791 6.47582 5.67123L6.67191 3.9934C7.0473 3.8062 7.43948 3.65121 7.84379 3.53027L9.22972 4.58514C9.35066 4.67725 9.50323 4.72335 9.65785 4.71449C9.8837 4.70186 10.1101 4.70186 10.336 4.71449C10.4906 4.72335 10.6432 4.67725 10.7641 4.58514L12.1524 3.53027C12.5566 3.65132 12.9488 3.80631 13.3243 3.9934L13.5243 5.67123C13.5413 5.81754 13.6148 5.95263 13.7305 6.05036C13.8997 6.19344 14.0598 6.34585 14.2102 6.5068C14.3129 6.61689 14.4549 6.68682 14.6086 6.70306L16.3727 6.88965C16.5694 7.24685 16.7323 7.62002 16.8594 8.00473L15.7508 9.32351C15.6531 9.43955 15.6046 9.58622 15.6149 9.7346H15.6172Z" fill="#7F7F7F"/>
</svg>
