<svg width="1440" height="1048" viewBox="0 0 1440 1048" fill="none" xmlns="http://www.w3.org/2000/svg">
<path opacity="0.9" d="M1440 0C1440 0 1293.62 264.023 1141.12 423.853C988.611 583.683 941.863 617.066 541.82 700.521C141.777 783.977 -5.73984e-05 1048 -5.73984e-05 1048H1440V0Z" fill="url(#paint0_linear_30_122)"/>
<path d="M1302.87 1000C1299.1 1000.01 1295.35 999.303 1291.73 997.89C1255.85 983.769 1257.74 949.744 1259.19 922.395C1260.59 896.907 1260.65 880.875 1244.65 872.983C1223.48 862.56 1214.78 872.685 1201.58 888.023C1185.86 906.288 1166.34 929.021 1118.94 919.789C1094.39 914.999 1054.73 897.95 1006.17 843.897C988.86 824.759 972.854 803.666 958.339 780.86L965.666 773.117C966.402 774.308 1038.9 891.72 1120.31 907.554C1163.37 915.942 1180.35 896.188 1195.34 878.766C1208.79 863.13 1221.48 848.364 1247.96 861.393C1271.34 872.933 1269.88 899.662 1268.58 923.264C1267.07 950.886 1265.77 974.735 1294.43 986.027C1326.73 998.734 1369.2 931.429 1394.52 891.323C1403.59 877.003 1409.88 866.63 1414.9 861.244L1422 868.69C1418.86 873.653 1410.14 886.062 1401.76 899.24C1375.96 940.164 1338.15 1000 1302.87 1000Z" fill="#353B44"/>
<path d="M1169.75 902.293C1169.75 902.293 1169.38 902.764 1168.62 903.385C1167.56 904.307 1166.46 905.136 1165.32 905.867C1161.54 908.294 1157.55 910.095 1153.44 911.227C1149.33 912.339 1145.13 912.764 1140.94 912.493C1139.67 912.406 1138.41 912.232 1137.16 911.972C1136.69 911.92 1136.23 911.778 1135.8 911.55C1135.8 911.351 1137.8 911.55 1140.97 911.55C1149.26 911.604 1157.46 909.372 1165.05 904.998C1167.94 903.261 1169.68 901.995 1169.75 902.293Z" fill="white"/>
<path d="M1224.97 864.842C1223.95 864.892 1222.92 864.842 1221.9 864.693C1216.96 864.6 1212.16 866.777 1208.32 870.847C1207.58 871.791 1206.79 872.662 1205.96 873.453C1206.39 872.196 1207.04 871.084 1207.85 870.202C1209.71 867.892 1211.93 866.131 1214.35 865.036C1216.77 863.94 1219.35 863.536 1221.9 863.849C1222.97 863.859 1224.02 864.199 1224.97 864.842Z" fill="white"/>
<path d="M1285.12 982.057C1283.64 981.827 1282.2 981.247 1280.87 980.345C1277.59 978.362 1274.65 975.549 1272.2 972.065C1269.75 968.581 1267.84 964.496 1266.6 960.044C1266.02 958.239 1265.7 956.315 1265.63 954.361C1265.78 954.361 1266.16 956.47 1267.22 959.721C1268.6 963.951 1270.52 967.844 1272.89 971.237C1275.27 974.611 1278.07 977.423 1281.18 979.551C1283.56 981.189 1285.18 981.859 1285.12 982.057Z" fill="white"/>
<path d="M1416.62 865.735C1412.12 872.82 1407.14 879.349 1401.74 885.242C1406.26 878.189 1411.24 871.662 1416.62 865.735Z" fill="white"/>
<path d="M966.668 783.59C964.732 786.39 962.029 788.064 959.153 788.246C956.278 788.427 953.465 787.101 951.333 784.558L934.752 764.704L949.369 743.584L965.931 763.438C968.062 765.983 969.336 769.535 969.474 773.314C969.612 777.093 968.603 780.789 966.668 783.59Z" fill="#353B44"/>
<path d="M966.667 783.59C967.223 782.52 967.733 781.409 968.196 780.265C969.363 777.026 969.545 773.325 968.706 769.916C968.138 767.558 967.102 765.442 965.703 763.786L960.699 757.904C957.167 753.685 953.239 749.044 949.066 744.105H949.708L942.4 754.678L935.091 765.225V764.381L946.649 778.205L951.596 784.186C952.979 785.853 954.674 787.009 956.507 787.536C959.173 788.304 961.961 787.709 964.306 785.874C965.133 785.158 965.928 784.379 966.685 783.541C966.081 784.605 965.332 785.514 964.476 786.221C962.094 788.283 959.189 789.023 956.393 788.281C954.436 787.778 952.616 786.596 951.124 784.856C949.557 783.019 947.895 781.034 946.12 778.974L934.468 765.151L934.128 764.754L934.449 764.307L941.739 753.735L949.047 743.212L949.349 742.765L949.689 743.162L961.247 757.085L966.194 763.066C967.661 764.849 968.732 767.122 969.292 769.643C970.112 773.223 969.827 777.083 968.498 780.389C968.052 781.602 967.43 782.69 966.667 783.59Z" fill="#263238"/>
<path d="M882.894 664.366L854.302 633.294C853.769 632.715 853.328 632.002 853.004 631.198C852.68 630.394 852.48 629.514 852.415 628.608C852.35 627.702 852.421 626.789 852.625 625.919C852.829 625.05 853.162 624.242 853.604 623.541C854.045 622.84 854.587 622.26 855.199 621.835C855.811 621.409 856.48 621.146 857.17 621.061C857.859 620.975 858.554 621.07 859.216 621.338C859.877 621.606 860.492 622.042 861.025 622.623L889.598 653.695L882.894 664.366Z" fill="#353B44"/>
<path d="M856.002 709.757L827.448 678.685C826.914 678.107 826.471 677.396 826.145 676.593C825.82 675.79 825.618 674.91 825.551 674.004C825.484 673.098 825.554 672.184 825.757 671.314C825.959 670.443 826.29 669.634 826.731 668.932C827.171 668.228 827.712 667.645 828.324 667.218C828.936 666.791 829.606 666.527 830.296 666.441C830.986 666.356 831.682 666.451 832.344 666.721C833.006 666.991 833.621 667.43 834.153 668.014L862.744 699.06L856.002 709.757Z" fill="#353B44"/>
<g opacity="0.6">
<path d="M882.893 664.366L854.302 633.294C853.768 632.715 853.327 632.002 853.003 631.198C852.679 630.394 852.479 629.514 852.414 628.608C852.349 627.702 852.421 626.789 852.625 625.919C852.829 625.05 853.161 624.242 853.603 623.541C854.044 622.84 854.586 622.26 855.198 621.835C855.81 621.409 856.48 621.146 857.169 621.061C857.858 620.975 858.553 621.07 859.215 621.338C859.877 621.606 860.491 622.042 861.025 622.623L889.597 653.695L882.893 664.366Z" fill="white"/>
</g>
<g opacity="0.6">
<path d="M856.001 709.757L827.447 678.685C826.912 678.107 826.469 677.396 826.144 676.592C825.818 675.789 825.616 674.909 825.55 674.004C825.483 673.098 825.553 672.184 825.755 671.313C825.958 670.443 826.289 669.634 826.729 668.931C827.169 668.228 827.711 667.645 828.323 667.218C828.934 666.79 829.605 666.526 830.295 666.441C830.985 666.355 831.681 666.45 832.343 666.72C833.004 666.99 833.619 667.43 834.151 668.013L862.743 699.06L856.001 709.757Z" fill="white"/>
</g>
<path d="M882.893 664.366C883.024 664.08 883.169 663.807 883.328 663.547L884.612 661.363L889.39 653.446V653.967L875.963 639.622L867.559 630.539L863.045 625.576L860.723 623.094C860.015 622.293 859.139 621.791 858.211 621.654C857.427 621.522 856.629 621.648 855.891 622.021C855.153 622.393 854.496 623.001 853.981 623.789C853.482 624.558 853.129 625.472 852.952 626.456C852.774 627.44 852.778 628.465 852.961 629.447C853.142 630.371 853.492 631.223 853.981 631.929C854.514 632.663 855.088 633.344 855.699 633.964L859.25 637.835L871.487 651.361L879.777 660.643L882.044 663.125C882.332 663.429 882.604 663.761 882.856 664.117C882.573 663.904 882.308 663.654 882.062 663.373L879.796 660.891C877.7 658.682 874.83 655.679 871.355 651.982L858.777 638.555L855.152 634.659C854.49 633.99 853.859 633.269 853.263 632.5C852.464 631.364 851.954 629.929 851.804 628.395C851.654 626.86 851.871 625.303 852.425 623.938C852.98 622.574 853.844 621.47 854.898 620.78C855.952 620.091 857.143 619.85 858.305 620.091C859.409 620.278 860.45 620.871 861.308 621.803L863.612 624.285L868.107 629.249L876.473 638.406L889.692 653.024L889.919 653.272L889.73 653.545L884.612 661.387L883.252 663.373C883.165 663.722 883.044 664.056 882.893 664.366Z" fill="#263238"/>
<path d="M856.002 709.757C856.13 709.464 856.282 709.189 856.455 708.938C856.795 708.343 857.21 707.623 857.739 706.754L862.517 698.838V699.359L849.09 684.989L840.686 675.931L836.172 670.967L833.85 668.485C833.127 667.7 832.249 667.201 831.319 667.046C830.533 666.924 829.737 667.056 828.999 667.433C828.262 667.809 827.606 668.418 827.089 669.205C826.588 669.973 826.235 670.888 826.06 671.873C825.886 672.858 825.896 673.884 826.088 674.864C826.266 675.784 826.609 676.635 827.089 677.345C827.629 678.072 828.21 678.744 828.826 679.356L832.358 683.252L844.614 696.778L852.904 706.059L855.171 708.541C855.462 708.833 855.728 709.166 855.964 709.534C855.964 709.534 855.699 709.311 855.19 708.789L852.904 706.432L844.463 697.522L831.904 684.096L828.279 680.175C827.608 679.52 826.976 678.798 826.39 678.016C825.802 677.135 825.387 676.078 825.181 674.938C824.952 673.774 824.94 672.554 825.147 671.383C825.354 670.212 825.774 669.124 826.371 668.213C826.995 667.292 827.78 666.585 828.659 666.153C829.537 665.72 830.483 665.575 831.413 665.731C832.517 665.919 833.558 666.512 834.416 667.443C835.19 668.312 835.965 669.131 836.739 669.925L841.234 674.888L849.6 684.021L862.819 698.664L863.027 698.912L862.857 699.185C860.704 702.436 858.985 705.067 857.72 707.003L856.379 709.013C856.19 709.559 856.002 709.782 856.002 709.757Z" fill="#263238"/>
<path d="M947.857 703.751L948.612 702.56C950.209 700.034 951.036 696.82 950.935 693.539C950.834 690.258 949.811 687.143 948.065 684.795C946.318 682.447 943.971 681.033 941.477 680.826C938.983 680.619 936.52 681.633 934.562 683.674L892.713 637.86L844.84 713.132L887.671 757.804C886.343 760.532 885.82 763.803 886.199 767.002C886.578 770.201 887.833 773.109 889.729 775.176C891.76 777.383 894.367 778.458 896.993 778.17C899.619 777.882 902.055 776.256 903.78 773.638C909.825 779.631 917.41 782.292 924.925 781.055C932.439 779.818 939.29 774.78 944.023 767.011L950.897 755.744C955.486 748.178 957.723 738.608 957.159 728.962C956.595 719.315 953.271 710.307 947.857 703.751Z" fill="#353B44"/>
<path d="M947.858 703.75L948.217 704.172L949.218 705.438C949.772 706.11 950.283 706.841 950.747 707.622L951.673 709.111L952.617 710.923C954.286 714.087 955.561 717.581 956.394 721.272C957.651 726.844 957.925 732.719 957.195 738.452C956.465 744.184 954.751 749.622 952.182 754.354C950.653 757.208 948.878 759.913 947.14 762.866C945.389 765.985 943.45 768.915 941.343 771.627C936.554 777.514 930.391 781.1 923.855 781.802C916.62 782.628 909.407 779.925 903.592 774.208H904.177C902.41 776.855 899.949 778.53 897.284 778.898C895.9 779.09 894.5 778.916 893.167 778.388C891.834 777.859 890.595 776.987 889.523 775.821C887.542 773.657 886.23 770.617 885.834 767.272C885.437 763.928 885.983 760.508 887.37 757.654L887.464 758.424L854.246 723.605L844.558 713.479L844.18 713.107L844.482 712.61C861.932 685.311 878.229 659.649 892.412 637.413L892.676 636.991L892.978 637.338L934.733 683.276H934.412C935.938 681.697 937.774 680.718 939.706 680.453C941.637 680.187 943.587 680.645 945.329 681.774C947.071 682.904 948.535 684.658 949.55 686.834C950.566 689.01 951.092 691.519 951.068 694.072C951.032 696.749 950.373 699.347 949.18 701.517C948.877 702.064 948.549 702.586 948.198 703.08L947.839 703.602C947.839 703.602 948.292 702.857 949.066 701.418C950.179 699.21 950.771 696.62 950.766 693.972C950.76 691.885 950.375 689.83 949.642 687.978C948.91 686.126 947.851 684.531 946.555 683.326C944.912 681.735 942.93 680.866 940.889 680.844C938.623 680.808 936.415 681.798 934.638 683.648L934.468 683.822L934.299 683.648L892.374 637.984H892.941L845.2 713.429V712.561L854.869 722.686L888.012 757.431L888.333 757.754L888.106 758.2C886.824 760.802 886.309 763.93 886.657 766.995C887.004 770.061 888.191 772.855 889.995 774.853C891.94 776.967 894.438 777.998 896.954 777.724C899.47 777.451 901.805 775.895 903.46 773.389L903.724 773.017L904.026 773.314C909.416 778.602 916.045 781.241 922.762 780.774C929.479 780.307 935.859 776.763 940.795 770.758C942.85 768.075 944.744 765.188 946.46 762.122C948.217 759.193 950.03 756.463 951.54 753.684C954.917 747.48 956.797 740.088 956.939 732.463C957.08 724.839 955.476 717.335 952.334 710.923C952.013 710.278 951.71 709.657 951.408 709.086L950.502 707.597C950.049 706.795 949.557 706.032 949.029 705.314L948.066 703.999C947.915 703.833 947.845 703.75 947.858 703.75Z" fill="#263238"/>
<path d="M899.947 705.195L870.419 673.105L865.641 680.697L895.169 712.788L899.947 705.195Z" fill="#E0E0E0"/>
<path d="M947.858 703.751C947.393 704.784 946.862 705.764 946.272 706.679C945.214 708.541 943.647 711.171 941.683 714.398C937.773 720.875 932.24 729.685 926.065 739.339C919.889 748.993 914.394 757.556 910.22 764.033L905.424 771.478C904.856 772.429 904.224 773.309 903.535 774.109C904 773.076 904.531 772.096 905.121 771.181C906.179 769.319 907.746 766.688 909.71 763.462C913.62 756.985 919.153 748.175 925.328 738.645L941.173 713.827L945.988 706.382C946.547 705.429 947.173 704.548 947.858 703.751Z" fill="#263238"/>
<path d="M934.564 683.574C934.07 684.666 933.501 685.696 932.864 686.652C931.712 688.588 930.013 691.367 927.916 694.767C923.686 701.567 917.756 710.849 911.147 721.024C904.537 731.2 898.607 740.233 894.15 747.058C892.035 750.235 890.373 752.89 888.976 754.9C888.367 755.897 887.698 756.827 886.974 757.68C887.489 756.6 888.063 755.571 888.693 754.603C889.845 752.667 891.525 749.887 893.64 746.487C897.871 739.687 903.801 730.405 910.41 720.23L927.407 694.221L932.581 686.354C933.187 685.362 933.85 684.433 934.564 683.574Z" fill="#263238"/>
<path d="M313.472 920C302.726 919.998 292.011 918.838 281.513 916.542C259.713 911.75 242.634 904.71 229.608 895.076C213.341 900.749 196.286 903.841 179.061 904.24C123.003 905.747 72.2592 888.234 10.0464 837.916C6.9156 831.23 3.90013 824.157 1 816.697C60.8893 865.137 125.722 893.273 178.74 891.939C192.283 891.583 205.721 889.448 218.707 885.59C204.248 870.522 196.956 850.835 197.055 826.924C197.055 800.715 208.326 788.834 217.669 783.498C230.893 775.915 248.986 776.952 264.854 786.191C282.354 796.392 292.76 813.634 292.685 832.333C292.565 840.002 290.706 847.543 287.246 854.389C283.787 861.235 278.818 867.208 272.714 871.856C263.616 878.833 253.757 884.758 243.326 889.518C273.164 905.88 307.778 911.33 341.205 904.932C393.877 894.483 437.873 875.809 471.958 849.427C498.637 828.936 520.062 802.403 534.467 772.014C548.872 741.624 555.844 708.249 554.809 674.638V674.415C551.769 613.525 516.201 554.044 464.147 522.87C419.014 495.822 361.176 488.411 301.312 501.997C264.113 510.445 213.492 530.478 183.659 577.98C151.527 629.162 160.227 692.67 186.748 722.188C205.657 743.259 241.892 735.651 271.033 729.599L280.624 727.623C311.94 721.398 439.01 661.842 439.505 661.669L442.199 671.797C440.147 672.513 315.203 733.304 283.021 739.702C279.956 740.295 276.792 740.962 273.555 741.653C241.422 748.397 201.233 756.796 177.578 730.463C160.474 711.394 150.958 683.876 150.785 652.974C150.596 624.253 158.363 596.04 173.228 571.458C205.36 520.4 259.12 498.983 298.593 489.943C361.547 475.665 422.598 483.57 470.475 512.174C525.841 545.522 563.658 608.931 567.02 673.699C567.291 677.009 570.604 724.239 545.318 777.693C530.143 809.71 507.555 837.654 479.423 859.209C443.805 886.776 398.104 906.142 343.479 917.06C333.598 919.023 323.547 920.007 313.472 920ZM237.567 790.785C232.748 790.709 227.994 791.893 223.774 794.219C214.407 799.579 209.439 810.917 209.364 827.023C209.364 850.069 216.508 867.879 231.61 881.119C243.604 876.351 254.883 869.95 265.126 862.099C269.741 858.604 273.505 854.111 276.138 848.956C278.77 843.802 280.202 838.119 280.327 832.333C280.327 818.081 272.269 804.84 258.601 796.886C252.246 793.044 244.992 790.94 237.567 790.785Z" fill="#353B44"/>
<path d="M239.445 901.448C237.782 900.984 236.216 900.222 234.823 899.201C231.308 896.981 227.962 894.504 224.813 891.79C221.613 889.15 218.629 886.259 215.89 883.144C214.657 881.921 213.675 880.47 212.998 878.871C213.146 878.871 214.308 880.353 216.533 882.576C218.757 884.799 221.921 887.764 225.579 890.851C229.237 893.939 232.722 896.607 235.293 898.41C236.747 899.323 238.135 900.339 239.445 901.448Z" fill="#263238"/>
<path d="M252.396 894.235C250.469 894.129 248.581 893.65 246.835 892.827C242.551 891.065 238.552 888.675 234.971 885.738C231.374 882.834 228.13 879.517 225.306 875.857C224.043 874.383 223.025 872.714 222.291 870.917C222.439 870.917 223.675 872.597 225.974 875.24C228.977 878.678 232.286 881.836 235.861 884.676C239.37 887.547 243.212 889.985 247.305 891.938C250.32 893.519 252.446 894.038 252.396 894.235Z" fill="#263238"/>
<path d="M203.063 851.674C202.686 851.057 202.419 850.381 202.272 849.673C201.695 847.806 201.217 845.909 200.838 843.992C198.342 831.264 199.272 818.103 203.532 805.852C204.158 804.007 204.893 802.201 205.732 800.443C205.989 799.772 206.338 799.14 206.77 798.565C206.968 798.565 205.757 801.455 204.299 806.124C202.454 812.219 201.286 818.498 200.813 824.848C200.386 831.191 200.668 837.563 201.654 843.844C202.445 848.685 203.26 851.625 203.063 851.674Z" fill="white"/>
<path d="M172.289 895.89C170.363 896.517 168.357 896.866 166.332 896.928C156.582 897.745 146.773 896.352 137.636 892.852C135.711 892.223 133.882 891.333 132.198 890.209C134.147 890.695 136.062 891.306 137.933 892.037C142.492 893.528 147.173 894.619 151.922 895.298C156.679 895.962 161.483 896.218 166.283 896.063C168.28 895.885 170.286 895.827 172.289 895.89Z" fill="white"/>
<path d="M513.063 813.955C512.06 815.876 510.85 817.682 509.454 819.34C503.105 827.634 495.787 835.139 487.654 841.695C486.039 843.136 484.264 844.387 482.364 845.425C483.815 843.881 485.376 842.445 487.036 841.127C490.002 838.484 494.031 834.754 498.282 830.431C502.533 826.108 506.142 821.934 508.713 818.895C510.04 817.145 511.494 815.494 513.063 813.955Z" fill="white"/>
<path d="M160.524 688.198C159.989 687.151 159.566 686.05 159.263 684.913C158.271 681.889 157.445 678.814 156.791 675.699C155.694 671.091 154.868 666.423 154.32 661.718C153.024 650.162 153.332 638.484 155.234 627.012C156.016 622.335 157.073 617.708 158.398 613.154C159.275 610.083 160.306 607.057 161.488 604.089C161.853 602.972 162.333 601.895 162.922 600.878C162.683 602.03 162.353 603.162 161.933 604.262C161.191 606.386 160.252 609.499 159.239 613.377C158.031 617.925 157.066 622.534 156.347 627.185C155.501 632.915 154.981 638.688 154.789 644.476C154.66 650.248 154.883 656.023 155.457 661.767C155.926 666.446 156.644 671.097 157.607 675.699C158.423 679.627 159.189 682.789 159.807 684.938C160.132 686.004 160.372 687.094 160.524 688.198Z" fill="white"/>
<path d="M175.453 577.313C174.835 579.665 173.824 581.895 172.462 583.909C171.444 586.121 170.066 588.15 168.384 589.911C169.017 587.561 170.036 585.333 171.399 583.316C172.424 581.113 173.792 579.087 175.453 577.313Z" fill="white"/>
<path d="M614.773 678.788L592.8 565.901C592.309 563.758 591.003 561.889 589.159 560.69C587.314 559.491 585.076 559.055 582.916 559.475C580.756 559.896 578.844 561.138 577.585 562.941C576.325 564.744 575.816 566.966 576.165 569.137L577.179 574.275L531.724 585.44C526.904 586.621 522.448 588.966 518.746 592.27C515.044 595.573 512.21 599.734 510.492 604.387L483.081 611.13C478.52 612.252 474.59 615.138 472.157 619.154C469.724 623.17 468.986 627.987 470.105 632.547L472.576 642.427L445.758 649.047C443.981 649.485 442.308 650.269 440.834 651.353C439.359 652.437 438.113 653.801 437.167 655.367C436.22 656.932 435.591 658.669 435.316 660.477C435.04 662.286 435.124 664.13 435.563 665.906C436.001 667.682 436.785 669.355 437.87 670.828C438.955 672.301 440.319 673.547 441.886 674.493C443.452 675.439 445.19 676.067 446.999 676.343C448.809 676.618 450.655 676.534 452.432 676.096L479.275 669.501L481.178 677.232C482.301 681.791 485.188 685.717 489.207 688.149C493.225 690.581 498.045 691.319 502.607 690.201L530.513 683.333V683.111C534.169 686.236 538.518 688.447 543.198 689.559C547.879 690.672 552.757 690.655 557.43 689.509L597.768 679.628L598.238 682.098C598.729 684.242 600.034 686.111 601.879 687.31C603.723 688.509 605.962 688.944 608.122 688.524C610.281 688.104 612.193 686.861 613.453 685.058C614.713 683.255 615.221 681.034 614.872 678.862L614.773 678.788Z" fill="#353B44"/>
<path d="M614.773 678.788C614.945 679.407 615.02 680.048 614.995 680.69C614.963 682.603 614.283 684.449 613.067 685.927C612.067 687.122 610.764 688.027 609.295 688.548C607.826 689.07 606.244 689.188 604.713 688.891C603.216 688.573 601.83 687.864 600.696 686.835C599.563 685.807 598.723 684.496 598.262 683.037C597.941 681.95 597.792 680.838 597.545 679.702L597.867 679.9L568.206 687.31L559.333 689.533C556.191 690.436 552.937 690.885 549.668 690.867C542.512 690.73 535.627 688.11 530.191 683.457L530.933 682.987V683.185L531.056 683.654H530.587C521.17 685.952 511.308 688.595 500.704 690.941C497.876 691.304 495.002 691.001 492.312 690.058C489.621 689.114 487.188 687.556 485.206 685.507C483.151 683.393 481.648 680.805 480.832 677.973C480.065 675.157 479.423 672.341 478.706 669.5L479.373 669.92L456.732 675.626C454.78 676.046 452.926 676.639 450.825 676.96C448.148 677.286 445.433 676.858 442.985 675.725C440.538 674.592 438.456 672.799 436.974 670.547C435.491 668.296 434.668 665.675 434.595 662.98C434.523 660.286 435.204 657.625 436.563 655.297C437.708 653.411 439.25 651.796 441.08 650.563C442.911 649.331 444.988 648.51 447.167 648.158L472.428 641.958L471.983 642.674C471.488 640.624 470.969 638.5 470.426 636.351C469.785 634.144 469.331 631.889 469.066 629.607C468.728 624.899 470.225 620.244 473.243 616.614C474.719 614.83 476.523 613.346 478.558 612.242C480.584 611.202 482.748 610.454 484.984 610.018L510.344 603.794L509.948 604.164C512.367 597.7 516.861 592.219 522.727 588.577C525.588 586.836 528.709 585.56 531.971 584.798L541.363 582.476L577.055 573.756L576.659 574.374C576.387 573.04 576.14 571.681 575.868 570.347C575.516 568.985 575.424 567.569 575.596 566.173C575.818 564.792 576.361 563.481 577.18 562.347C577.999 561.212 579.072 560.285 580.314 559.639C581.556 558.994 582.932 558.647 584.331 558.628C585.731 558.609 587.116 558.917 588.375 559.528C589.608 560.091 590.695 560.93 591.552 561.979C592.409 563.028 593.013 564.26 593.319 565.58L598.732 593.518C602.093 611.056 605.034 626.371 607.457 639.043C609.879 651.715 611.733 661.596 613.043 668.438C613.661 671.798 614.13 674.391 614.452 676.194C614.6 677.059 614.724 677.701 614.798 678.195C614.82 678.425 614.82 678.657 614.798 678.887C614.715 678.672 614.657 678.448 614.625 678.22C614.625 677.726 614.378 677.084 614.205 676.244L612.598 668.488C611.238 661.67 609.261 651.74 606.74 639.167C604.219 626.593 601.228 611.204 597.768 593.691C596.037 584.93 594.2 575.634 592.256 565.802C591.983 564.638 591.45 563.551 590.697 562.623C589.943 561.694 588.989 560.949 587.906 560.442C586.789 559.911 585.563 559.649 584.327 559.678C583.091 559.706 581.879 560.023 580.787 560.605C579.696 561.186 578.757 562.015 578.044 563.025C577.331 564.035 576.866 565.197 576.684 566.42C576.509 567.7 576.593 569.002 576.931 570.249C577.203 571.583 577.475 572.916 577.722 574.275V574.769L577.228 574.893L541.561 583.711C535.407 585.416 528.783 586.181 523.271 589.664C517.603 593.167 513.256 598.449 510.912 604.683L510.788 604.979H510.492L485.132 611.229C482.999 611.633 480.935 612.34 479.002 613.329C477.115 614.368 475.438 615.75 474.059 617.404C471.233 620.788 469.832 625.137 470.154 629.533C470.408 631.749 470.855 633.94 471.488 636.079C472.008 638.253 472.551 640.377 473.046 642.427L473.194 642.995L472.601 643.144L447.488 649.344C445.456 649.639 443.515 650.382 441.806 651.518C440.096 652.654 438.66 654.156 437.601 655.914C436.381 658.046 435.776 660.475 435.856 662.93C435.935 665.385 436.695 667.77 438.05 669.819C439.406 671.868 441.304 673.5 443.534 674.534C445.763 675.568 448.236 675.963 450.677 675.676C452.555 675.429 454.533 674.811 456.461 674.367L479.077 668.833L479.62 668.71L479.744 669.229C480.461 672.069 481.103 674.935 481.845 677.677C482.61 680.34 484.019 682.775 485.948 684.766C487.811 686.698 490.099 688.171 492.63 689.067C495.161 689.963 497.866 690.258 500.531 689.929C510.937 687.607 520.972 684.988 530.34 682.74L530.018 683.309V683.111L529.672 681.703L530.76 682.642C536.036 687.16 542.721 689.702 549.668 689.83C552.861 689.857 556.041 689.424 559.11 688.545L567.984 686.396L597.644 679.208H597.916V679.48C598.163 680.616 598.311 681.777 598.608 682.79C598.905 683.788 599.391 684.719 600.042 685.532C601.249 686.999 602.909 688.025 604.763 688.447C605.948 688.691 607.172 688.675 608.351 688.401C609.53 688.127 610.635 687.601 611.591 686.859C612.547 686.117 613.331 685.177 613.889 684.104C614.447 683.03 614.765 681.849 614.822 680.641C614.837 680.023 614.82 679.404 614.773 678.788Z" fill="#263238"/>
<path d="M598.658 679.38C598.337 679.38 593.047 656.012 586.843 627.062C580.639 598.111 575.843 574.546 576.189 574.472C576.536 574.398 581.8 597.815 588.029 626.79C594.258 655.765 599.004 679.306 598.658 679.38Z" fill="#263238"/>
<path d="M530.414 683.037C530.093 683.037 525.471 665.523 519.885 643.761C514.298 621.999 510.22 604.238 510.541 604.238C510.863 604.238 515.485 621.752 521.071 643.563C526.657 665.375 530.736 683.037 530.414 683.037Z" fill="#263238"/>
<path d="M479.225 669.499C477.412 665.217 476.094 660.742 475.295 656.16C474.112 651.675 473.204 647.121 472.576 642.525C474.376 646.819 475.686 651.302 476.482 655.889C477.666 660.367 478.582 664.912 479.225 669.499Z" fill="#263238"/>
<path d="M824.005 576.6C823.928 576.669 823.841 576.727 823.747 576.772L822.932 577.215L819.771 578.86L808.041 584.853L768.677 604.678L768.42 604.821L768.234 604.578C767.147 603.019 765.988 601.374 764.801 599.715L759.923 592.792L760.381 592.892L723.691 614.076L712.763 620.313L709.788 621.958C709.473 622.129 709.23 622.272 709.016 622.372C708.801 622.472 708.744 622.515 708.744 622.501C708.744 622.487 708.744 622.501 708.987 622.315L709.731 621.843L712.592 620.084L723.42 613.676L759.98 592.291L760.252 592.12L760.438 592.391C762.012 594.594 763.656 596.94 765.344 599.3C766.517 600.974 767.676 602.619 768.777 604.163L768.334 604.049L807.784 584.424L819.613 578.631L822.832 577.086L823.661 576.714L824.005 576.6Z" fill="#263238"/>
<path d="M813.577 628.266C813.328 628.363 813.069 628.435 812.805 628.48L810.545 628.981L802.163 630.754L774.113 636.19L773.77 636.261V635.918L773.14 632.442C773.012 631.656 772.869 630.869 772.74 630.154L773.14 630.44C761.769 632.385 751.685 634.731 744.533 636.676C740.914 637.62 738.024 638.436 735.95 638.993L733.647 639.637C733.382 639.723 733.109 639.781 732.832 639.809C733.079 639.679 733.337 639.574 733.604 639.494L735.864 638.736C737.853 638.092 740.728 637.205 744.332 636.204C753.777 633.565 763.349 631.407 773.012 629.739H773.355V630.082C773.484 630.812 773.627 631.598 773.77 632.371C773.984 633.572 774.185 634.745 774.385 635.847L773.97 635.56L802.063 630.34L810.473 628.909L812.762 628.537C813.019 628.406 813.294 628.315 813.577 628.266Z" fill="#263238"/>
<path d="M717.684 578.617C717.856 578.703 714.222 586.57 709.545 596.182C704.868 605.794 700.963 613.518 700.777 613.433C700.591 613.347 704.253 605.494 708.916 595.867C713.579 586.241 717.512 578.531 717.684 578.617Z" fill="#263238"/>
<path d="M760.395 617.18C760.395 617.366 751.398 620.17 740.184 623.445C728.969 626.721 719.815 629.167 719.772 629.038C719.729 628.909 728.755 626.049 739.983 622.773C751.212 619.497 760.338 616.994 760.395 617.18Z" fill="#263238"/>
<path d="M690.392 554C690.636 554.455 690.832 554.935 690.978 555.43C691.35 556.489 691.836 557.891 692.409 559.607C693.653 563.298 695.341 568.39 697.343 574.383L697.487 574.812H697.029L685.857 574.583L686.215 574.168C686.473 575.599 686.759 577.029 687.045 578.617C688.876 588.63 690.521 597.813 691.751 604.536C692.308 607.783 692.766 610.443 693.095 612.403C693.224 613.261 693.338 613.976 693.424 614.548C693.483 614.796 693.507 615.052 693.496 615.306C693.393 615.073 693.321 614.828 693.281 614.577C693.167 614.005 693.009 613.304 692.823 612.446L691.264 604.621C689.991 597.913 688.26 588.801 686.344 578.731C686.072 577.215 685.786 575.728 685.528 574.297L685.443 573.882H685.872L697.043 574.168L696.743 574.598L692.051 559.736C691.522 557.991 691.093 556.575 690.778 555.445C690.618 554.972 690.489 554.489 690.392 554Z" fill="#263238"/>
<path d="M641.001 661.78C640.915 661.608 648.153 658.032 657.207 653.798C666.261 649.564 673.628 646.274 673.714 646.446C673.8 646.618 666.562 650.208 657.507 654.442C648.453 658.676 641.087 661.951 641.001 661.78Z" fill="#263238"/>
<path d="M674.729 672.15C676.599 669.348 678.664 666.681 680.909 664.168C682.985 661.514 685.235 659 687.646 656.645C685.777 659.452 683.707 662.119 681.452 664.626C679.387 667.286 677.141 669.8 674.729 672.15Z" fill="#263238"/>
<path d="M692.91 721.27C692.724 721.27 693.954 707.323 695.685 690.159C697.415 672.994 698.96 659.091 699.16 659.119C699.361 659.148 698.102 673.066 696.386 690.23C694.669 707.395 693.11 721.284 692.91 721.27Z" fill="#263238"/>
<path d="M668.092 598.027C669.395 599.856 670.503 601.817 671.396 603.878C672.502 605.831 673.394 607.898 674.057 610.043C672.761 608.211 671.659 606.251 670.767 604.192C669.665 602.235 668.769 600.169 668.092 598.027Z" fill="#263238"/>
<defs>
<linearGradient id="paint0_linear_30_122" x1="1366.57" y1="501.964" x2="820.878" y2="1164.52" gradientUnits="userSpaceOnUse">
<stop stop-color="#07678D"/>
<stop offset="0.7" stop-color="#064067"/>
</linearGradient>
</defs>
</svg>
