<svg width="50" height="34" viewBox="0 0 50 34" fill="none" xmlns="http://www.w3.org/2000/svg">
<path d="M25.0947 25.75C30.185 25.75 34.3114 21.8325 34.3114 17C34.3114 12.1675 30.185 8.25 25.0947 8.25C20.0044 8.25 15.8779 12.1675 15.8779 17C15.8779 21.8325 20.0044 25.75 25.0947 25.75Z" stroke="white" stroke-width="3"/>
<path d="M46.6565 14.335C47.6783 15.515 48.1891 16.1025 48.1891 17C48.1891 17.8975 47.6783 18.485 46.6565 19.665C42.9171 23.975 34.6695 32 25.0946 32C15.5197 32 7.27199 23.975 3.53262 19.665C2.51087 18.485 2 17.8975 2 17C2 16.1025 2.51087 15.515 3.53262 14.335C7.27199 10.025 15.5197 2 25.0946 2C34.6695 2 42.9171 10.025 46.6565 14.335Z" stroke="white" stroke-width="3"/>
</svg>
