<svg width="20" height="20" viewBox="0 0 20 20" fill="none" xmlns="http://www.w3.org/2000/svg">
<path d="M16.875 5.48432H10.2586L8.125 3.45412C8.00935 3.3432 7.87168 3.25525 7.71999 3.19539C7.5683 3.13554 7.40562 3.10498 7.24141 3.10547H3.125C2.79348 3.10547 2.47554 3.23079 2.24112 3.45385C2.0067 3.67691 1.875 3.97944 1.875 4.2949V15.0458C1.87541 15.3489 2.00214 15.6395 2.22739 15.8538C2.45263 16.0682 2.75802 16.1887 3.07656 16.1891H16.9445C17.2575 16.1887 17.5575 16.0703 17.7788 15.8597C18.0001 15.6491 18.1246 15.3637 18.125 15.0659V6.67375C18.125 6.35829 17.9933 6.05576 17.7589 5.8327C17.5245 5.60964 17.2065 5.48432 16.875 5.48432ZM3.125 4.2949H7.24141L8.49141 5.48432H3.125V4.2949ZM16.875 14.9997H3.125V6.67375H16.875V14.9997Z" fill="#7F7F7F"/>
</svg>
