<svg width="17" height="13" viewBox="0 0 17 13" fill="none" xmlns="http://www.w3.org/2000/svg">
<path d="M16.2501 6.08579H15.0894V1.47809H6.38403V0.326172H15.0894C15.3972 0.326172 15.6925 0.447535 15.9101 0.663562C16.1278 0.87959 16.2501 1.17259 16.2501 1.47809V6.08579Z" fill="#7F7F7F"/>
<path d="M13.3485 8.96567H12.1878V4.35798H3.48242V3.20605H12.1878C12.4956 3.20605 12.7909 3.32742 13.0085 3.54345C13.2262 3.75947 13.3485 4.05247 13.3485 4.35798V8.96567Z" fill="#7F7F7F"/>
<path d="M9.28572 12.9965H1.16071C0.852874 12.9965 0.557642 12.8751 0.339965 12.6591C0.122289 12.4431 0 12.1501 0 11.8446V7.23688C0 6.93137 0.122289 6.63838 0.339965 6.42235C0.557642 6.20632 0.852874 6.08496 1.16071 6.08496H9.28572C9.59356 6.08496 9.88879 6.20632 10.1065 6.42235C10.3241 6.63838 10.4464 6.93137 10.4464 7.23688V11.8446C10.4464 12.1501 10.3241 12.4431 10.1065 12.6591C9.88879 12.8751 9.59356 12.9965 9.28572 12.9965ZM1.16071 7.23688V11.8446H9.2863L9.28572 7.23688H1.16071Z" fill="#7F7F7F"/>
</svg>
