<svg width="15" height="15" viewBox="0 0 15 15" fill="none" xmlns="http://www.w3.org/2000/svg">
<path d="M1.25 0.810532C1.25 0.652805 1.18415 0.501538 1.06694 0.390008C0.949731 0.278477 0.79076 0.21582 0.625 0.21582C0.45924 0.21582 0.300269 0.278477 0.183058 0.390008C0.0658481 0.501538 0 0.652805 0 0.810532V11.5153C0 12.304 0.32924 13.0603 0.915291 13.618C1.50134 14.1756 2.2962 14.4889 3.125 14.4889H14.375C14.5408 14.4889 14.6997 14.4263 14.8169 14.3147C14.9342 14.2032 15 14.0519 15 13.8942C15 13.7365 14.9342 13.5852 14.8169 13.4737C14.6997 13.3621 14.5408 13.2995 14.375 13.2995H3.125C2.62772 13.2995 2.15081 13.1115 1.79917 12.7769C1.44754 12.4423 1.25 11.9885 1.25 11.5153V0.810532ZM10 3.18938C10 3.34711 10.0658 3.49838 10.1831 3.60991C10.3003 3.72144 10.4592 3.78409 10.625 3.78409H12.8663L8.75 7.70087L6.6925 5.74188C6.63444 5.6865 6.56547 5.64256 6.48954 5.61258C6.41361 5.5826 6.33221 5.56717 6.25 5.56717C6.16779 5.56717 6.08639 5.5826 6.01046 5.61258C5.93453 5.64256 5.86556 5.6865 5.8075 5.74188L2.6825 8.71544C2.62439 8.77074 2.57829 8.83638 2.54685 8.90863C2.5154 8.98087 2.49921 9.0583 2.49921 9.1365C2.49921 9.2147 2.5154 9.29213 2.54685 9.36437C2.57829 9.43662 2.62439 9.50226 2.6825 9.55756C2.74061 9.61285 2.8096 9.65671 2.88552 9.68664C2.96144 9.71656 3.04282 9.73196 3.125 9.73196C3.20718 9.73196 3.28856 9.71656 3.36448 9.68664C3.4404 9.65671 3.50939 9.61285 3.5675 9.55756L6.25 7.00386L8.3075 8.96284C8.36556 9.01823 8.43453 9.06217 8.51046 9.09215C8.58639 9.12213 8.66779 9.13756 8.75 9.13756C8.83221 9.13756 8.91361 9.12213 8.98954 9.09215C9.06547 9.06217 9.13444 9.01823 9.1925 8.96284L13.75 4.62501V6.84924C13.75 7.00697 13.8158 7.15823 13.9331 7.26976C14.0503 7.38129 14.2092 7.44395 14.375 7.44395C14.5408 7.44395 14.6997 7.38129 14.8169 7.26976C14.9342 7.15823 15 7.00697 15 6.84924V3.18938C15 3.03165 14.9342 2.88039 14.8169 2.76886C14.6997 2.65733 14.5408 2.59467 14.375 2.59467H10.625C10.4592 2.59467 10.3003 2.65733 10.1831 2.76886C10.0658 2.88039 10 3.03165 10 3.18938Z" fill="#7F7F7F"/>
</svg>
