<svg width="40" height="40" viewBox="0 0 40 40" fill="none" xmlns="http://www.w3.org/2000/svg">
<path d="M20 36.667C21.8333 36.667 23.3333 35.167 23.3333 33.3337H16.6666C16.6666 34.2177 17.0178 35.0656 17.6429 35.6907C18.2681 36.3158 19.1159 36.667 20 36.667ZM30 26.667V18.3337C30 13.217 27.2666 8.93366 22.5 7.80033V6.66699C22.5 5.28366 21.3833 4.16699 20 4.16699C18.6166 4.16699 17.5 5.28366 17.5 6.66699V7.80033C12.7166 8.93366 9.99996 13.2003 9.99996 18.3337V26.667L7.84996 28.817C6.79996 29.867 7.5333 31.667 9.01663 31.667H30.9666C32.45 31.667 33.2 29.867 32.15 28.817L30 26.667Z" fill="black"/>
</svg>
