<svg width="29" height="24" viewBox="0 0 29 24" fill="none" xmlns="http://www.w3.org/2000/svg">
<path d="M5.24096 5.81818C5.24096 4.75732 5.64589 3.7399 6.36666 2.98975C7.08743 2.23961 8.06501 1.81818 9.08434 1.81818C10.1037 1.81818 11.0812 2.23961 11.802 2.98975C12.5228 3.7399 12.9277 4.75732 12.9277 5.81818C12.9277 6.87905 12.5228 7.89646 11.802 8.64661C11.0812 9.39675 10.1037 9.81818 9.08434 9.81818C8.06501 9.81818 7.08743 9.39675 6.36666 8.64661C5.64589 7.89646 5.24096 6.87905 5.24096 5.81818ZM9.08434 0C7.60168 0 6.17975 0.612985 5.13135 1.70411C4.08296 2.79523 3.49398 4.2751 3.49398 5.81818C3.49398 7.36126 4.08296 8.84114 5.13135 9.93226C6.17975 11.0234 7.60168 11.6364 9.08434 11.6364C10.567 11.6364 11.9889 11.0234 13.0373 9.93226C14.0857 8.84114 14.6747 7.36126 14.6747 5.81818C14.6747 4.2751 14.0857 2.79523 13.0373 1.70411C11.9889 0.612985 10.567 0 9.08434 0ZM19.2169 7.27273C19.2169 6.59763 19.4745 5.95018 19.9332 5.47282C20.3919 4.99545 21.014 4.72727 21.6627 4.72727C22.3113 4.72727 22.9334 4.99545 23.3921 5.47282C23.8508 5.95018 24.1084 6.59763 24.1084 7.27273C24.1084 7.94782 23.8508 8.59527 23.3921 9.07264C22.9334 9.55 22.3113 9.81818 21.6627 9.81818C21.014 9.81818 20.3919 9.55 19.9332 9.07264C19.4745 8.59527 19.2169 7.94782 19.2169 7.27273ZM21.6627 2.90909C20.5507 2.90909 19.4842 3.36883 18.6979 4.18717C17.9116 5.00551 17.4699 6.11542 17.4699 7.27273C17.4699 8.43004 17.9116 9.53994 18.6979 10.3583C19.4842 11.1766 20.5507 11.6364 21.6627 11.6364C22.7746 11.6364 23.8411 11.1766 24.6274 10.3583C25.4137 9.53994 25.8554 8.43004 25.8554 7.27273C25.8554 6.11542 25.4137 5.00551 24.6274 4.18717C23.8411 3.36883 22.7746 2.90909 21.6627 2.90909ZM21.6627 22.5455C20.1421 22.5455 18.922 22.2895 17.9479 21.8749L18.0778 21.7004C18.423 21.2269 18.6879 20.7527 18.8905 20.3033C19.6033 20.5615 20.5089 20.7273 21.662 20.7273C24.65 20.7273 25.9756 19.6124 26.5975 18.6684C26.9517 18.126 27.1736 17.5019 27.2439 16.8502C27.2479 16.8076 27.2507 16.7649 27.2523 16.7222V16.5455C27.2523 16.0436 26.861 15.6364 26.3788 15.6364H19.4705C19.3278 14.9639 19.0264 14.339 18.5935 13.8182H26.3795C27.0745 13.8182 27.741 14.1055 28.2325 14.617C28.7239 15.1284 29 15.8221 29 16.5455V16.7615L28.9979 16.824C28.9956 16.8754 28.9909 16.943 28.9839 17.0269C28.8848 17.9838 28.5606 18.9006 28.0399 19.696C27.0441 21.2058 25.1378 22.5455 21.6613 22.5455M2.62048 13.8182C1.92549 13.8182 1.25896 14.1055 0.767521 14.617C0.276086 15.1284 0 15.8221 0 16.5455V17.4931L0.00279514 17.5636C0.00559033 17.6218 0.0116466 17.6989 0.0209638 17.7949C0.0412289 17.9855 0.0796626 18.2473 0.155132 18.5585C0.35565 19.3783 0.712073 20.1479 1.20333 20.8218C2.43111 22.5062 4.76998 24 9.08434 24C13.3987 24 15.7383 22.5062 16.9647 20.8218C17.4562 20.1477 17.8129 19.3779 18.0135 18.5578C18.089 18.2473 18.1274 17.9855 18.1477 17.7942C18.158 17.6941 18.165 17.5937 18.1687 17.4931V16.5455C18.1687 16.1873 18.1009 15.8327 17.9692 15.5018C17.8375 15.1709 17.6445 14.8702 17.4012 14.617C17.1578 14.3637 16.8689 14.1628 16.551 14.0258C16.2331 13.8887 15.8923 13.8182 15.5482 13.8182H2.62048ZM1.74769 17.472L1.74699 17.4487V16.5455C1.74699 16.0436 2.13831 15.6364 2.62048 15.6364H15.5482C16.0304 15.6364 16.4217 16.0436 16.4217 16.5455V17.4487L16.421 17.472C16.4058 17.688 16.3722 17.9022 16.3204 18.112C16.1771 18.6958 15.9228 19.2438 15.5727 19.7236C14.7467 20.8582 12.9801 22.1818 9.08434 22.1818C5.18855 22.1818 3.422 20.8582 2.59602 19.7236C2.24591 19.244 1.99167 18.6963 1.84831 18.1127C1.79648 17.9027 1.76281 17.6883 1.74769 17.472Z" fill="black"/>
</svg>
