<svg width="37" height="38" viewBox="0 0 37 38" fill="none" xmlns="http://www.w3.org/2000/svg">
<path d="M18.5 19C20.6466 19 22.7053 18.1473 24.2231 16.6294C25.741 15.1115 26.5938 13.0528 26.5938 10.9062C26.5938 8.75965 25.741 6.70098 24.2231 5.1831C22.7053 3.66523 20.6466 2.8125 18.5 2.8125C16.3534 2.8125 14.2947 3.66523 12.7769 5.1831C11.259 6.70098 10.4062 8.75965 10.4062 10.9062C10.4062 13.0528 11.259 15.1115 12.7769 16.6294C14.2947 18.1473 16.3534 19 18.5 19ZM8.67188 21.3125C7.59858 21.3125 6.56924 21.7389 5.8103 22.4978C5.05137 23.2567 4.625 24.2861 4.625 25.3594V25.9375C4.625 28.7044 6.38597 31.0447 8.88578 32.6357C11.3995 34.2359 14.8023 35.1875 18.5 35.1875C22.1977 35.1875 25.5994 34.2359 28.1142 32.6357C30.614 31.0447 32.375 28.7044 32.375 25.9375V25.3594C32.375 24.2861 31.9486 23.2567 31.1897 22.4978C30.4308 21.7389 29.4014 21.3125 28.3281 21.3125H8.67188Z" fill="black"/>
</svg>
