<svg width="25" height="28" viewBox="0 0 25 28" fill="none" xmlns="http://www.w3.org/2000/svg">
<path d="M11.0476 17.0594V19.5671C8.85011 19.5671 6.74261 20.3597 5.18873 21.7706C3.63486 23.1814 2.7619 25.095 2.7619 27.0903H0C0 24.4299 1.16394 21.8785 3.23577 19.9974C5.3076 18.1162 8.11761 17.0594 11.0476 17.0594ZM11.0476 15.8055C6.46976 15.8055 2.7619 12.4389 2.7619 8.28241C2.7619 4.12588 6.46976 0.759277 11.0476 0.759277C15.6255 0.759277 19.3333 4.12588 19.3333 8.28241C19.3333 12.4389 15.6255 15.8055 11.0476 15.8055ZM11.0476 13.2978C14.0995 13.2978 16.5714 11.0534 16.5714 8.28241C16.5714 5.51139 14.0995 3.26699 11.0476 3.26699C7.99571 3.26699 5.52381 5.51139 5.52381 8.28241C5.52381 11.0534 7.99571 13.2978 11.0476 13.2978ZM23.4762 20.821H24.8571V27.0903H13.8095V20.821H15.1905V19.5671C15.1905 18.5695 15.627 17.6127 16.4039 16.9073C17.1808 16.2019 18.2346 15.8055 19.3333 15.8055C20.4321 15.8055 21.4858 16.2019 22.2628 16.9073C23.0397 17.6127 23.4762 18.5695 23.4762 19.5671V20.821ZM20.7143 20.821V19.5671C20.7143 19.2346 20.5688 18.9156 20.3098 18.6805C20.0508 18.4454 19.6996 18.3133 19.3333 18.3133C18.9671 18.3133 18.6158 18.4454 18.3569 18.6805C18.0979 18.9156 17.9524 19.2346 17.9524 19.5671V20.821H20.7143Z" fill="#07678D"/>
</svg>
