<svg width="34" height="29" viewBox="0 0 34 29" fill="none" xmlns="http://www.w3.org/2000/svg">
<path d="M13.6147 0.990295C14.6254 0.343647 15.8002 0 17.0001 0C18.2 0 19.3748 0.343647 20.3856 0.990295L33.4417 9.36082C33.6122 9.4703 33.7526 9.62071 33.8501 9.79834C33.9476 9.97598 33.9991 10.1752 33.9999 10.3778C34.0007 10.5805 33.9508 10.7801 33.8547 10.9585C33.7586 11.1369 33.6194 11.2884 33.4498 11.3992L28.3335 14.7426V23.7397C28.3335 24.0024 28.2483 24.2581 28.0907 24.4683L28.0891 24.4699L28.0874 24.4731L28.0826 24.4796L28.068 24.4958C28.0118 24.5706 27.9524 24.643 27.8899 24.7127C27.7265 24.8986 27.5547 25.0769 27.375 25.247C26.9266 25.6793 26.2579 26.2411 25.3512 26.7981C23.5363 27.9152 20.7871 29 17.0001 29C13.2131 29 10.4656 27.9152 8.64739 26.7981C7.91961 26.355 7.24116 25.8356 6.62357 25.2486C6.44498 25.0784 6.27426 24.9002 6.11195 24.7144C6.04242 24.6356 5.97546 24.5546 5.91118 24.4715L5.90956 24.4666C5.75192 24.2564 5.66671 24.0008 5.66671 23.7381V14.7393L2.42859 12.6248V21.3095C2.42859 21.6315 2.30065 21.9404 2.07293 22.1681C1.84521 22.3958 1.53635 22.5238 1.21429 22.5238C0.892244 22.5238 0.583383 22.3958 0.355659 22.1681C0.127935 21.9404 3.84809e-07 21.6315 3.84809e-07 21.3095V10.3808C-0.000165097 10.1729 0.0530442 9.96849 0.154533 9.78706C0.256022 9.60563 0.402391 9.45329 0.579624 9.34463L13.6147 0.990295ZM20.4309 19.9041C19.4104 20.5695 18.2184 20.9237 17.0001 20.9237C15.7819 20.9237 14.5899 20.5695 13.5693 19.9041L8.09529 16.3292V23.2847C8.15466 23.3473 8.22482 23.4175 8.30577 23.4952C8.64739 23.8239 9.18006 24.274 9.91997 24.7289C11.3917 25.6356 13.7037 26.573 17.0001 26.573C20.2965 26.573 22.6085 25.634 24.0803 24.7289C24.7442 24.3224 25.3568 23.8375 25.9049 23.2847V16.3292L20.4309 19.9041ZM19.0757 3.03517C17.8113 2.22564 16.189 2.22564 14.9245 3.03517L3.4486 10.3922L14.897 17.8722C16.176 18.706 17.8258 18.706 19.1033 17.8722L30.55 10.3922L19.0757 3.03517Z" fill="#07678D"/>
</svg>
